<?xml version="1.0" encoding="UTF-8"?>
<svg width="512px" height="512px" viewBox="0 0 512 512" version="1.1" xmlns="http://www.w3.org/2000/svg" xmlns:xlink="http://www.w3.org/1999/xlink">
    <!-- Generator: Sketch 64 (93537) - https://sketch.com -->
    <title>Icon</title>
    <desc>Created with Sketch.</desc>
    <defs>
        <circle id="path-1" cx="128" cy="128" r="128"></circle>
    </defs>
    <g id="Page-1" stroke="none" stroke-width="1" fill="none" fill-rule="evenodd">
        <g id="iOS-App-Icon-Template" transform="translate(-1681.000000, -325.000000)"></g>
        <g id="Icon">
            <rect id="Background" fill="#FFFFFF" x="-1" y="0" width="512" height="512"></rect>
            <g id="Glyph" transform="translate(80.000000, 80.000000)">
                <g id="Oval">
                    <use fill-opacity="0" fill="#000000" fill-rule="evenodd" style="mix-blend-mode: overlay;" xlink:href="#path-1"></use>
                    <use stroke="#007AFF" stroke-width="18" xlink:href="#path-1"></use>
                </g>
                <path d="M207.46938,262.904121 L352.374286,263.692534 C357.262305,263.719129 359.032372,264.235264 360.816095,265.197411 C362.599819,266.159558 363.998178,267.565546 364.950606,269.354478 C365.903034,271.143411 366.409531,272.916259 366.409531,277.804351 L366.409531,288.909937 C366.409531,293.81329 365.89899,295.591364 364.940301,297.383957 C363.981612,299.176549 362.574775,300.583387 360.782182,301.542076 C358.989589,302.500765 357.211515,303.011305 352.308162,303.011305 L210.510899,303.011305 C205.607546,303.011305 203.829472,302.500765 202.036879,301.542076 C200.244287,300.583387 198.83745,299.176549 197.878761,297.383957 C196.920072,295.591364 196.409531,293.81329 196.409531,288.909937 L196.409531,273.903959 C196.409531,267.828826 201.334398,262.903959 207.409531,262.903959 C207.42948,262.903959 207.44943,262.904013 207.46938,262.904121 Z" id="Rectangle" fill="#007AFF" transform="translate(281.409531, 283.011305) rotate(45.000000) translate(-281.409531, -283.011305) "></path>
                <rect id="Rectangle" fill="#00CFDB" x="120" y="56" width="19" height="140" rx="9.5"></rect>
                <rect id="Rectangle" fill="#00CFDB" x="160" y="78" width="19" height="100" rx="9.5"></rect>
                <rect id="Rectangle" fill="#00CFDB" x="205" y="108" width="19" height="40" rx="9.5"></rect>
                <rect id="Rectangle" fill="#00CFDB" x="80" y="78" width="19" height="100" rx="9.5"></rect>
                <rect id="Rectangle" fill="#00CFDB" x="40" y="110" width="19" height="40" rx="9.5"></rect>
            </g>
            <g id="Smooth-Corners" opacity="0" fill="#000000">
                <path d="M-3.93619317e-15,365.858544 C2.28704159e-15,416.675112 5.29105984,435.102427 15.2265641,453.680205 C25.1620684,472.257983 39.7420171,486.837932 58.3197949,496.773436 C76.8975727,506.70894 95.3248882,512 146.141456,512 L146.141456,512 L0,512 Z M512,365.858544 L512,512 L365.858544,512 C416.675112,512 435.102427,506.70894 453.680205,496.773436 C472.257983,486.837932 486.837932,472.257983 496.773436,453.680205 C506.70894,435.102427 512,416.675112 512,365.858544 L512,365.858544 Z M512,146.141456 C512,95.3248882 506.70894,76.8975727 496.773436,58.3197949 C486.837932,39.7420171 472.257983,25.1620684 453.680205,15.2265641 C435.102427,5.29105984 416.675112,-3.43056238e-15 365.858544,5.90428975e-15 L365.858544,5.90428975e-15 L512,0 Z M0,0 L146.141456,-5.90428975e-15 C95.3248882,3.43056238e-15 76.8975727,5.29105984 58.3197949,15.2265641 C39.7420171,25.1620684 25.1620684,39.7420171 15.2265641,58.3197949 C5.29105984,76.8975727 -2.28704159e-15,95.3248882 3.93619317e-15,146.141456 L3.93619317e-15,146.141456 L0,0 Z"></path>
            </g>
        </g>
    </g>
</svg>